<svg width="12" height="12" viewBox="0 0 12 12" fill="none" xmlns="http://www.w3.org/2000/svg">
<g clip-path="url(#clip0)">
<path d="M10.4202 6.21931C11.7214 4.9182 11.7213 2.8011 10.4202 1.49999C9.11911 0.19888 7.00201 0.198855 5.7009 1.49997C4.57827 2.62259 4.42443 4.35264 5.23909 5.64192L0.83548 9.99718C0.548969 10.2837 0.548969 10.7499 0.835479 11.0364C1.12199 11.3229 1.58817 11.3229 1.87468 11.0364L2.04143 10.8696L2.74087 11.5691C2.94053 11.7687 3.25704 11.7771 3.44642 11.5877C3.63582 11.3983 3.62746 11.0818 3.42781 10.8821L3.41381 10.8681C3.34725 10.8016 3.34725 10.6933 3.41381 10.6267L3.60595 10.4346C3.67251 10.368 3.7808 10.368 3.84735 10.4346L3.86135 10.4486C4.06101 10.6482 4.37752 10.6566 4.56692 10.4672C4.75632 10.2778 4.74796 9.96128 4.54831 9.76162L3.84887 9.06219L6.27826 6.68115C7.56757 7.49578 9.29759 7.34196 10.4202 6.21931ZM6.7324 5.18781C5.99888 4.45429 5.99888 3.26499 6.7324 2.53147C7.46592 1.79794 8.65522 1.79794 9.38874 2.53147C10.1223 3.26499 10.1223 4.45429 9.38874 5.18781C8.65522 5.92134 7.46592 5.92134 6.7324 5.18781Z" fill="#A0A5AB"/>
</g>
<defs>
<clipPath id="clip0">
<rect width="12" height="12" fill="white"/>
</clipPath>
</defs>
</svg>
