<svg width="30" height="30" viewBox="0 0 30 30" fill="none" xmlns="http://www.w3.org/2000/svg">
<path d="M17.1134 15.1881C17.6068 15.6968 18.2627 15.977 18.9605 15.977H22.7004C24.1407 15.977 25.3125 14.7689 25.3125 13.284C25.3125 11.799 24.1407 10.591 22.7004 10.591H20.0424L19.2593 9.78357C20.374 8.9962 21.0871 7.67543 21.0871 6.20785C21.0871 3.81877 19.2018 1.875 16.8844 1.875C14.2055 1.875 12.2066 4.43412 12.7778 7.13735H10.4262C9.72855 7.13735 9.07253 7.41751 8.57918 7.9262L5.45324 11.1488C4.43239 12.2011 4.43212 13.9047 5.45324 14.9573C6.47182 16.0074 8.12903 16.0072 9.14734 14.9573L11.5082 12.5233H12.0347L10.403 19.0614L8.55404 18.3496C7.20456 17.8302 5.6971 18.5396 5.1933 19.9306C4.68827 21.3249 5.3741 22.8748 6.7268 23.3955L11.3137 25.1611C12.7734 25.723 14.3906 24.847 14.7639 23.2809L15.0054 22.2681L19.9226 27.3375C20.9412 28.3875 22.5982 28.3875 23.6168 27.3375C24.6351 26.2875 24.6351 24.579 23.6167 23.529L16.5421 16.2354L16.8407 14.9069L17.1134 15.1881ZM14.6807 17.321L22.1595 25.0312C22.3745 25.2528 22.3745 25.6135 22.1596 25.8351C21.944 26.0572 21.5953 26.0573 21.3798 25.8351L15.1697 19.4329C14.6012 18.8468 13.6315 19.1296 13.4405 19.9305L12.7627 22.7737C12.6837 23.1051 12.342 23.2888 12.0344 23.1706L7.4476 21.405C7.16218 21.2951 7.01731 20.9681 7.12392 20.6737C7.23026 20.3801 7.54844 20.2305 7.83331 20.3399L10.7551 21.4646C11.329 21.6853 11.9611 21.3442 12.1134 20.7341L14.3617 11.7257C14.5292 11.0543 14.0369 10.3987 13.3638 10.3987H11.0815C10.8082 10.3987 10.5461 10.5106 10.3529 10.7099L7.69022 13.455C7.47528 13.6766 7.1255 13.6766 6.91049 13.455C6.695 13.2327 6.695 12.8733 6.91049 12.651L10.0364 9.42841C10.1406 9.32098 10.2791 9.26185 10.4263 9.26185H14.3689C15.2221 9.26185 15.706 8.24935 15.1856 7.55185C14.1103 6.11083 15.1069 3.9995 16.8844 3.9995C18.0654 3.9995 19.0263 4.99012 19.0263 6.20778C19.0263 7.27219 18.2907 8.18497 17.2771 8.37817C16.4686 8.53234 16.1412 9.57345 16.7325 10.1832L18.887 12.4043C19.0803 12.6035 19.3423 12.7155 19.6156 12.7155H22.7003C23.0043 12.7155 23.2516 12.9705 23.2516 13.2839C23.2516 13.5974 23.0043 13.8523 22.7003 13.8523H18.9604C18.8131 13.8523 18.6747 13.7932 18.5705 13.6858L16.9844 12.0506C16.4136 11.4621 15.4345 11.7502 15.252 12.5621L14.4054 16.3301C14.3252 16.6872 14.4293 17.0618 14.6807 17.321Z" fill="#E2E5E7"/>
<path d="M0.948287 6.50291C1.44907 6.50291 1.85507 6.09691 1.85507 5.59613V1.82724H5.62402C6.12481 1.82724 6.5308 1.42124 6.5308 0.920455C6.5308 0.419669 6.12481 0.0136719 5.62402 0.0136719H0.948287C0.447501 0.0136719 0.0415039 0.419669 0.0415039 0.920455V5.59619C0.0415039 6.09691 0.447501 6.50291 0.948287 6.50291Z" fill="#E2E5E7"/>
<path d="M24.3755 1.82724H28.1445V5.59619C28.1445 6.09698 28.5505 6.50297 29.0513 6.50297C29.5521 6.50297 29.958 6.09698 29.958 5.59619V0.920455C29.958 0.419669 29.5521 0.0136719 29.0513 0.0136719H24.3755C23.8747 0.0136719 23.4688 0.419669 23.4688 0.920455C23.4688 1.42124 23.8747 1.82724 24.3755 1.82724Z" fill="#E2E5E7"/>
<path d="M29.0513 23.4976C28.5505 23.4976 28.1445 23.9036 28.1445 24.4043V28.1733H24.3755C23.8747 28.1733 23.4688 28.5793 23.4688 29.0801C23.4688 29.5809 23.8747 29.9869 24.3755 29.9869H29.0513C29.5521 29.9869 29.958 29.5809 29.958 29.0801V24.4043C29.958 23.9036 29.5521 23.4976 29.0513 23.4976Z" fill="#E2E5E7"/>
<path d="M5.62402 28.1733H1.85507V24.4043C1.85507 23.9036 1.44907 23.4976 0.948287 23.4976C0.447501 23.4976 0.0415039 23.9036 0.0415039 24.4043V29.0801C0.0415039 29.5809 0.447501 29.9869 0.948287 29.9869H5.62402C6.12481 29.9869 6.5308 29.5809 6.5308 29.0801C6.5308 28.5793 6.12481 28.1733 5.62402 28.1733Z" fill="#E2E5E7"/>
</svg>
